<svg version="1.1" xmlns="http://www.w3.org/2000/svg" viewBox="0 0 679.0160497551444 725.5878647076717" width="1358.0320995102888" height="1451.1757294153433">
  <!-- svg-source:excalidraw -->
  
  <defs>
    <style class="style-fonts">
      @font-face {
        font-family: "Virgil";
        src: url("https://excalidraw.com/Virgil.woff2");
      }
      @font-face {
        font-family: "Cascadia";
        src: url("https://excalidraw.com/Cascadia.woff2");
      }
    </style>
  </defs>
  <rect x="0" y="0" width="679.0160497551444" height="725.5878647076717" fill="#ffffff"></rect><g stroke-linecap="round" transform="translate(17.5013283397991 340.3493483298606) rotate(0 70.64819071121907 49.5)"><path d="M24.75 0 M24.75 0 C45.33 2.42, 67.27 0.03, 116.55 0 M24.75 0 C44.56 1.32, 64.33 0.63, 116.55 0 M116.55 0 C131.12 0.04, 141.43 9.05, 141.3 24.75 M116.55 0 C135.21 -0.08, 141.12 8.13, 141.3 24.75 M141.3 24.75 C141.25 35.93, 141.13 45, 141.3 74.25 M141.3 24.75 C141.91 43.5, 140.6 64.23, 141.3 74.25 M141.3 74.25 C139.96 89.73, 132.05 99.79, 116.55 99 M141.3 74.25 C141.19 91.65, 133.46 97.37, 116.55 99 M116.55 99 C85.5 99.7, 49.22 98.89, 24.75 99 M116.55 99 C85.31 99.43, 51.8 98.37, 24.75 99 M24.75 99 C9.12 97.35, 0.34 89.45, 0 74.25 M24.75 99 C9.6 98.64, 0.22 92.65, 0 74.25 M0 74.25 C-0.84 57.08, -1.37 44.55, 0 24.75 M0 74.25 C0.12 56.12, 0.56 39.58, 0 24.75 M0 24.75 C-0.51 7.75, 9.1 -1.15, 24.75 0 M0 24.75 C0.07 9.52, 9.68 1.05, 24.75 0" stroke="#1e1e1e" stroke-width="1" fill="none"></path></g><g transform="translate(41.89352234691661 369.8493483298606) rotate(0 46.255996704101555 20)"><text x="46.25599670410156" y="0" font-family="Virgil, Segoe UI Emoji" font-size="16px" fill="#1e1e1e" text-anchor="middle" style="white-space: pre;" direction="ltr" dominant-baseline="text-before-edge">Trivia </text><text x="46.25599670410156" y="20" font-family="Virgil, Segoe UI Emoji" font-size="16px" fill="#1e1e1e" text-anchor="middle" style="white-space: pre;" direction="ltr" dominant-baseline="text-before-edge">Microservice</text></g><g stroke-linecap="round" transform="translate(170.55759281878204 346.3493483298606) rotate(0 70.97186776050853 47)"><path d="M23.5 0 M23.5 0 C48.33 -0.55, 74.49 -0.99, 118.44 0 M23.5 0 C53.25 1.37, 83.47 0.05, 118.44 0 M118.44 0 C133.11 0.79, 141.85 8.62, 141.94 23.5 M118.44 0 C134.52 -1.63, 143.26 7.52, 141.94 23.5 M141.94 23.5 C140.63 41.03, 143.36 61.49, 141.94 70.5 M141.94 23.5 C141.95 36.71, 142.81 50.22, 141.94 70.5 M141.94 70.5 C142.29 84.86, 135.29 93.69, 118.44 94 M141.94 70.5 C142.16 88.07, 134.54 93.5, 118.44 94 M118.44 94 C79.92 95.18, 45.51 93.87, 23.5 94 M118.44 94 C85.52 94.5, 50.96 93.4, 23.5 94 M23.5 94 C8.69 92.85, 0.06 87.27, 0 70.5 M23.5 94 C9.26 95.05, 1.14 84.11, 0 70.5 M0 70.5 C1.86 51.73, -0.72 34.79, 0 23.5 M0 70.5 C-0.27 59.54, 1.23 49.89, 0 23.5 M0 23.5 C1.54 8.34, 9.04 1.53, 23.5 0 M0 23.5 C-0.47 6.97, 8.23 0.16, 23.5 0" stroke="#1e1e1e" stroke-width="1" fill="none"></path></g><g transform="translate(186.56946530951518 363.3493483298606) rotate(0 54.95999526977539 30)"><text x="54.95999526977539" y="0" font-family="Virgil, Segoe UI Emoji" font-size="16px" fill="#1e1e1e" text-anchor="middle" style="white-space: pre;" direction="ltr" dominant-baseline="text-before-edge">User / Game </text><text x="54.95999526977539" y="20" font-family="Virgil, Segoe UI Emoji" font-size="16px" fill="#1e1e1e" text-anchor="middle" style="white-space: pre;" direction="ltr" dominant-baseline="text-before-edge">Progress </text><text x="54.95999526977539" y="40" font-family="Virgil, Segoe UI Emoji" font-size="16px" fill="#1e1e1e" text-anchor="middle" style="white-space: pre;" direction="ltr" dominant-baseline="text-before-edge">Microservice</text></g><g stroke-linecap="round" transform="translate(18.427660422777905 212.98498764034974) rotate(0 144.42580189673498 44.58361710725296)"><path d="M22.29 0 M22.29 0 C85.58 2.46, 146.27 2.38, 266.56 0 M22.29 0 C102.43 -1.6, 180.96 -1.03, 266.56 0 M266.56 0 C280.27 0.06, 289.96 8.67, 288.85 22.29 M266.56 0 C282.47 1.14, 286.79 8.96, 288.85 22.29 M288.85 22.29 C287.43 35.67, 287.7 48.72, 288.85 66.88 M288.85 22.29 C288.2 33.06, 288.78 42.88, 288.85 66.88 M288.85 66.88 C289.36 82.94, 282.95 88.76, 266.56 89.17 M288.85 66.88 C287.99 82.13, 281.58 87.83, 266.56 89.17 M266.56 89.17 C184.98 90.78, 102.13 89.54, 22.29 89.17 M266.56 89.17 C186.81 87.49, 108.36 86.91, 22.29 89.17 M22.29 89.17 C7.04 89.99, 1.17 82.56, 0 66.88 M22.29 89.17 C7.82 90.55, 1.92 81.88, 0 66.88 M0 66.88 C-1.6 52.52, -1.57 37.76, 0 22.29 M0 66.88 C-1.19 57.58, 0.62 46.19, 0 22.29 M0 22.29 C0.44 9.4, 9.08 1.34, 22.29 0 M0 22.29 C0.35 6.39, 8.2 -0.39, 22.29 0" stroke="#1e1e1e" stroke-width="1" fill="none"></path></g><g transform="translate(93.9974595118957 247.5686047476027) rotate(0 68.8560028076172 10)"><text x="68.85600280761719" y="0" font-family="Virgil, Segoe UI Emoji" font-size="16px" fill="#1e1e1e" text-anchor="middle" style="white-space: pre;" direction="ltr" dominant-baseline="text-before-edge">Cloudflare Tunnel</text></g><g stroke-linecap="round" transform="translate(23.119052675936906 10) rotate(0 44.58361710725296 60.91001210427517)"><path d="M22.29 0 M22.29 0 C33.26 -0.83, 45.93 -0.21, 66.88 0 M22.29 0 C35.54 0.19, 48.09 -1.07, 66.88 0 M66.88 0 C79.93 1.49, 87.83 9.18, 89.17 22.29 M66.88 0 C81.64 2, 87.1 8.21, 89.17 22.29 M89.17 22.29 C89.75 40.67, 88.55 58.79, 89.17 99.53 M89.17 22.29 C88.17 46.82, 88.7 72.03, 89.17 99.53 M89.17 99.53 C87.73 112.6, 82.39 122.15, 66.88 121.82 M89.17 99.53 C88.42 113.39, 80.91 119.95, 66.88 121.82 M66.88 121.82 C55.98 123.56, 45.84 121.53, 22.29 121.82 M66.88 121.82 C52.57 121.93, 38 122.12, 22.29 121.82 M22.29 121.82 C8.35 123.64, -0.3 114.57, 0 99.53 M22.29 121.82 C5.87 121.17, 0.3 113.64, 0 99.53 M0 99.53 C1.66 78.86, 0.05 58.79, 0 22.29 M0 99.53 C-0.88 80.6, -1.41 61.94, 0 22.29 M0 22.29 C0.56 8.89, 7.21 1.46, 22.29 0 M0 22.29 C1.81 9.32, 9.68 -0.91, 22.29 0" stroke="#1e1e1e" stroke-width="1" fill="none"></path></g><g transform="translate(34.318667097642994 60.91001210427517) rotate(0 33.384002685546875 10)"><text x="33.384002685546875" y="0" font-family="Virgil, Segoe UI Emoji" font-size="16px" fill="#1e1e1e" text-anchor="middle" style="white-space: pre;" direction="ltr" dominant-baseline="text-before-edge">Frontend</text></g><g stroke-linecap="round"><g transform="translate(50.78844676049246 128.4056613165625) rotate(0 -0.507234805871569 46.27460387111944)"><path d="M0.08 -0.06 C0.2 15.42, 0.35 76.69, 0.32 92.16 M-1.34 -1.14 C-1.32 14.6, -0.53 78.38, -0.46 93.69" stroke="#1e1e1e" stroke-width="1" fill="none"></path></g><g transform="translate(50.78844676049246 128.4056613165625) rotate(0 -0.507234805871569 46.27460387111944)"><path d="M-11.07 66.13 C-8.36 72.98, -4.56 81.1, 0.06 92.33 M-11.79 65.12 C-7.1 74.73, -5.01 81.99, -0.62 92.75" stroke="#1e1e1e" stroke-width="1" fill="none"></path></g><g transform="translate(50.78844676049246 128.4056613165625) rotate(0 -0.507234805871569 46.27460387111944)"><path d="M9.45 65.94 C6.67 72.86, 4.97 81.03, 0.06 92.33 M8.73 64.93 C7.1 74.52, 2.87 81.84, -0.62 92.75" stroke="#1e1e1e" stroke-width="1" fill="none"></path></g></g><mask></mask><g stroke-linecap="round"><g transform="translate(92.20246298741577 207.6130232988857) rotate(0 -3.7372700872581746 -37.490564260385554)"><path d="M0.73 -0.21 C-0.6 -12.68, -5.78 -62.48, -7.03 -74.77 M-0.35 -1.37 C-1.95 -13.74, -6.99 -61.92, -8.2 -73.82" stroke="#1e1e1e" stroke-width="1" fill="none"></path></g><g transform="translate(92.20246298741577 207.6130232988857) rotate(0 -3.7372700872581746 -37.490564260385554)"><path d="M4.56 -47.55 C-1.93 -57.29, -5.49 -68.68, -6.79 -72.81 M4.71 -47.76 C0.49 -56.83, -5.11 -64.92, -7.98 -74.78" stroke="#1e1e1e" stroke-width="1" fill="none"></path></g><g transform="translate(92.20246298741577 207.6130232988857) rotate(0 -3.7372700872581746 -37.490564260385554)"><path d="M-15.85 -45.42 C-14.62 -56.09, -10.45 -68.29, -6.79 -72.81 M-15.7 -45.64 C-12.84 -55.34, -11.36 -64.17, -7.98 -74.78" stroke="#1e1e1e" stroke-width="1" fill="none"></path></g></g><mask></mask><g stroke-linecap="round"><g transform="translate(45.582076943055114 302.2325317655325) rotate(0 -0.9703957841462838 19.651766415428682)"><path d="M-0.17 -0.07 C-0.19 6.86, -0.34 33.85, -0.33 40.46 M-1.71 -1.16 C-1.91 5.53, -1.59 31.73, -1.45 38.74" stroke="#1e1e1e" stroke-width="1" fill="none"></path></g><g transform="translate(45.582076943055114 302.2325317655325) rotate(0 -0.9703957841462838 19.651766415428682)"><path d="M-8.64 19.65 C-5.4 25.43, -4.78 31.66, -0.43 37.59 M-8.75 20.64 C-6.84 27.69, -3.07 33.35, -0.93 38.68" stroke="#1e1e1e" stroke-width="1" fill="none"></path></g><g transform="translate(45.582076943055114 302.2325317655325) rotate(0 -0.9703957841462838 19.651766415428682)"><path d="M4.94 19.44 C4.27 25.26, 0.99 31.56, -0.43 37.59 M4.83 20.43 C1.92 27.56, 0.85 33.3, -0.93 38.68" stroke="#1e1e1e" stroke-width="1" fill="none"></path></g></g><mask></mask><g stroke-linecap="round"><g transform="translate(85.81932384350495 339.2856419856122) rotate(0 -4.389458547918522 -16.700297983077775)"><path d="M0.62 -0.07 C-0.88 -5.3, -6.74 -26.17, -8.43 -31.4 M-0.51 -1.15 C-2.22 -6.76, -8.28 -27.93, -9.4 -33.33" stroke="#1e1e1e" stroke-width="1" fill="none"></path></g><g transform="translate(85.81932384350495 339.2856419856122) rotate(0 -4.389458547918522 -16.700297983077775)"><path d="M-0.27 -19.81 C-2.87 -25.97, -6.08 -27.94, -8.9 -32.35 M0.21 -19.03 C-3.61 -24.52, -6.06 -29.16, -9.72 -32.55" stroke="#1e1e1e" stroke-width="1" fill="none"></path></g><g transform="translate(85.81932384350495 339.2856419856122) rotate(0 -4.389458547918522 -16.700297983077775)"><path d="M-11.16 -17.06 C-9.99 -24.22, -9.43 -27.15, -8.9 -32.35 M-10.68 -16.27 C-10.83 -22.66, -9.61 -28.23, -9.72 -32.55" stroke="#1e1e1e" stroke-width="1" fill="none"></path></g></g><mask></mask><g stroke-linecap="round"><g transform="translate(243.3277368541634 305.7634157576572) rotate(0 -5.313796712686013 20.151703654368752)"><path d="M-0.47 1.14 C-2.4 7.62, -9.38 32.37, -11 38.59 M1.48 0.69 C-0.67 7.32, -10.08 33.2, -12.1 39.61" stroke="#1e1e1e" stroke-width="1" fill="none"></path></g><g transform="translate(243.3277368541634 305.7634157576572) rotate(0 -5.313796712686013 20.151703654368752)"><path d="M-10.59 18.62 C-14.07 27.03, -14.16 33.55, -10.79 38.6 M-12.37 19.99 C-12.41 27.05, -11.36 35.33, -12.3 39.76" stroke="#1e1e1e" stroke-width="1" fill="none"></path></g><g transform="translate(243.3277368541634 305.7634157576572) rotate(0 -5.313796712686013 20.151703654368752)"><path d="M2.68 23.17 C-5.34 29.96, -9.99 34.92, -10.79 38.6 M0.89 24.53 C-4.31 29.83, -8.4 36.34, -12.3 39.76" stroke="#1e1e1e" stroke-width="1" fill="none"></path></g></g><mask></mask><g stroke-linecap="round"><g transform="translate(265.8978054826556 340.3968743731528) rotate(0 2.405175383337763 -16.751996398559783)"><path d="M1.09 -0.43 C1.79 -6.1, 4.33 -27.8, 4.61 -33.08 M0.2 -1.69 C0.77 -7.26, 3.21 -26.24, 4.03 -31.62" stroke="#1e1e1e" stroke-width="1" fill="none"></path></g><g transform="translate(265.8978054826556 340.3968743731528) rotate(0 2.405175383337763 -16.751996398559783)"><path d="M6.92 -14.45 C6.02 -22.29, 6.25 -24.99, 5.22 -30.41 M7.67 -15.15 C5.64 -21.05, 3.93 -27.58, 3.42 -31.16" stroke="#1e1e1e" stroke-width="1" fill="none"></path></g><g transform="translate(265.8978054826556 340.3968743731528) rotate(0 2.405175383337763 -16.751996398559783)"><path d="M-4.32 -16.01 C-1.48 -23.43, 2.48 -25.61, 5.22 -30.41 M-3.56 -16.71 C-1.26 -22.06, 1.35 -27.99, 3.42 -31.16" stroke="#1e1e1e" stroke-width="1" fill="none"></path></g></g><mask></mask><g stroke-linecap="round" transform="translate(11.258390986172998 492.50825635193) rotate(0 147.37315985362818 79.66047747739827)"><path d="M32 0 M32 0 C114.49 0.27, 198.8 -0.9, 262.75 0 M32 0 C110.42 0.11, 187.32 0.04, 262.75 0 M262.75 0 C283.61 -0.86, 294.9 12.41, 294.75 32 M262.75 0 C285.95 -0.05, 296.66 12.83, 294.75 32 M294.75 32 C294.51 60.65, 295.62 89.29, 294.75 127.32 M294.75 32 C295.1 60.39, 294.79 89.43, 294.75 127.32 M294.75 127.32 C293.45 149.11, 284.33 158.75, 262.75 159.32 M294.75 127.32 C293.94 148.95, 283.7 161.45, 262.75 159.32 M262.75 159.32 C193.14 159.7, 126.08 159.62, 32 159.32 M262.75 159.32 C190.54 159.71, 118.83 159.99, 32 159.32 M32 159.32 C8.72 158.56, 0.88 147.72, 0 127.32 M32 159.32 C11.6 158.18, 1.54 148.93, 0 127.32 M0 127.32 C-1.04 102.99, 0.57 74.8, 0 32 M0 127.32 C1.17 98.81, 0.75 70.81, 0 32 M0 32 C1.65 11.66, 9.17 1.42, 32 0 M0 32 C-2.06 10.73, 10.09 2.02, 32 0" stroke="#1e1e1e" stroke-width="1" fill="none"></path></g><g stroke-linecap="round" transform="translate(23.908636278231057 507.82270628760347) rotate(0 62.78926881087682 53.448716425787666)"><path d="M26.72 0 M26.72 0 C47.86 -0.58, 68.14 0.4, 98.85 0 M26.72 0 C47.07 0.54, 70.05 0.72, 98.85 0 M98.85 0 C116.37 -1.75, 124.04 8.29, 125.58 26.72 M98.85 0 C117.2 0.14, 125.56 8.07, 125.58 26.72 M125.58 26.72 C123.93 38.49, 123.32 54.51, 125.58 80.17 M125.58 26.72 C124.6 38.06, 125.51 47.62, 125.58 80.17 M125.58 80.17 C125.68 99.75, 118.02 105.72, 98.85 106.9 M125.58 80.17 C124.83 98.72, 115.52 107.24, 98.85 106.9 M98.85 106.9 C73.82 106.03, 44.11 107.3, 26.72 106.9 M98.85 106.9 C76.02 106.01, 51.04 106.52, 26.72 106.9 M26.72 106.9 C8.59 105.34, 0.73 98.21, 0 80.17 M26.72 106.9 C9.47 105.06, 0.04 97.81, 0 80.17 M0 80.17 C-0.63 64.36, -1.89 53.09, 0 26.72 M0 80.17 C-0.9 60.8, 0.43 41.97, 0 26.72 M0 26.72 C-0.51 7.48, 7.45 0.6, 26.72 0 M0 26.72 C2.2 10.1, 7.07 2.17, 26.72 0" stroke="#1e1e1e" stroke-width="1" fill="none"></path></g><g transform="translate(47.74590161010397 551.2714227133911) rotate(0 38.952003479003906 10)"><text x="38.952003479003906" y="0" font-family="Virgil, Segoe UI Emoji" font-size="16px" fill="#1e1e1e" text-anchor="middle" style="white-space: pre;" direction="ltr" dominant-baseline="text-before-edge">Trivia DB</text></g><g stroke-linecap="round" transform="translate(155.71420882337745 504.7091888259071) rotate(0 73.16766034986473 54.48655557968647)"><path d="M27.24 0 M27.24 0 C56.38 1.68, 84.18 -1.12, 119.09 0 M27.24 0 C56.44 1.43, 84.41 0.14, 119.09 0 M119.09 0 C136.33 -0.31, 144.77 9.81, 146.34 27.24 M119.09 0 C137.5 0.56, 144.5 9.12, 146.34 27.24 M146.34 27.24 C145.7 42.84, 144.73 57.5, 146.34 81.73 M146.34 27.24 C146.83 47.57, 145.85 69.79, 146.34 81.73 M146.34 81.73 C144.41 99.39, 135.82 107.52, 119.09 108.97 M146.34 81.73 C147.03 102.09, 138.45 107.14, 119.09 108.97 M119.09 108.97 C83.01 107.89, 46.01 109.74, 27.24 108.97 M119.09 108.97 C82.35 107.68, 46.85 109.22, 27.24 108.97 M27.24 108.97 C10.37 108.75, -1.56 100.9, 0 81.73 M27.24 108.97 C7.89 110.11, 0.02 101.98, 0 81.73 M0 81.73 C0.03 71.87, -0.62 58.6, 0 27.24 M0 81.73 C-1.37 61.29, 0.12 40.1, 0 27.24 M0 27.24 C1.49 10.78, 10.73 -1.69, 27.24 0 M0 27.24 C-0.55 9.21, 9.11 -2.23, 27.24 0" stroke="#1e1e1e" stroke-width="1" fill="none"></path></g><g transform="translate(161.33787045498045 539.1957444055936) rotate(0 67.54399871826173 20)"><text x="67.54399871826172" y="0" font-family="Virgil, Segoe UI Emoji" font-size="16px" fill="#1e1e1e" text-anchor="middle" style="white-space: pre;" direction="ltr" dominant-baseline="text-before-edge">User / Progress </text><text x="67.54399871826172" y="20" font-family="Virgil, Segoe UI Emoji" font-size="16px" fill="#1e1e1e" text-anchor="middle" style="white-space: pre;" direction="ltr" dominant-baseline="text-before-edge">DB</text></g><g transform="translate(121.46551674471738 621.9850132164704) rotate(0 34.75199890136719 10)"><text x="0" y="0" font-family="Virgil, Segoe UI Emoji" font-size="16px" fill="#1e1e1e" text-anchor="start" style="white-space: pre;" direction="ltr" dominant-baseline="text-before-edge">Postgres</text></g><g stroke-linecap="round" transform="translate(10 318.59146674048225) rotate(0 236.95908039757305 76.50890514862351)"><path d="M32 0 M32 0 C188.26 -1.18, 343.92 -2.1, 441.92 0 M32 0 C193.75 1.23, 354.33 1.42, 441.92 0 M441.92 0 C461.42 1.46, 472.55 8.81, 473.92 32 M441.92 0 C464.18 1.43, 474.05 8.98, 473.92 32 M473.92 32 C472.1 54.29, 474.62 70.99, 473.92 121.02 M473.92 32 C474.86 55.79, 474.72 80.37, 473.92 121.02 M473.92 121.02 C475.83 140.45, 463.12 153.28, 441.92 153.02 M473.92 121.02 C472.53 141.98, 463.54 153.7, 441.92 153.02 M441.92 153.02 C305.27 150.48, 167.84 151.21, 32 153.02 M441.92 153.02 C305.01 150.69, 166.84 151.55, 32 153.02 M32 153.02 C8.85 153.69, 1.54 141.58, 0 121.02 M32 153.02 C10.2 151.82, 1.67 140.2, 0 121.02 M0 121.02 C0.94 86.74, 2 56.19, 0 32 M0 121.02 C-1 95.54, -0.91 71.37, 0 32 M0 32 C-1.77 8.92, 9.62 -0.09, 32 0 M0 32 C0.44 9.4, 9.07 -1.04, 32 0" stroke="#1e1e1e" stroke-width="1" fill="none"></path></g><g transform="translate(132.36390934155293 446.6179327704224) rotate(0 26.399999618530273 10)"><text x="0" y="0" font-family="Virgil, Segoe UI Emoji" font-size="16px" fill="#1e1e1e" text-anchor="start" style="white-space: pre;" direction="ltr" dominant-baseline="text-before-edge">Docker</text></g><g stroke-linecap="round"><g transform="translate(51.17599939723411 431.00487316574566) rotate(0 1.4420592868261437 41.267012202494556)"><path d="M-0.73 -0.84 C-0.06 12.88, 2.63 68.32, 3.62 82.33 M1.08 1.34 C1.59 15.17, 1.73 69.52, 2.38 83.37" stroke="#1e1e1e" stroke-width="1" fill="none"></path></g><g transform="translate(51.17599939723411 431.00487316574566) rotate(0 1.4420592868261437 41.267012202494556)"><path d="M-9.9 54.51 C-7.19 64.64, -2.88 70.36, 0.6 81.48 M-9.21 55.58 C-4.8 63.49, -2.44 72.77, 3.01 83.03" stroke="#1e1e1e" stroke-width="1" fill="none"></path></g><g transform="translate(51.17599939723411 431.00487316574566) rotate(0 1.4420592868261437 41.267012202494556)"><path d="M10.61 54.05 C7.9 64.17, 6.79 70.02, 0.6 81.48 M11.3 55.13 C9.68 63.2, 6.01 72.61, 3.01 83.03" stroke="#1e1e1e" stroke-width="1" fill="none"></path></g></g><mask></mask><g stroke-linecap="round"><g transform="translate(203.143112882754 440.3727089285517) rotate(0 0.816236546148005 35.46416436964482)"><path d="M-1.18 0.87 C-0.54 12.46, 2.29 58.12, 2.81 69.68 M0.4 0.29 C1.04 11.97, 2.13 58.81, 2.25 70.64" stroke="#1e1e1e" stroke-width="1" fill="none"></path></g><g transform="translate(203.143112882754 440.3727089285517) rotate(0 0.816236546148005 35.46416436964482)"><path d="M-7.07 43.86 C-8.03 48.46, -4.81 54.18, 1.1 71.04 M-8.36 43.52 C-5.62 50.13, -3.2 55.88, 2.24 70.59" stroke="#1e1e1e" stroke-width="1" fill="none"></path></g><g transform="translate(203.143112882754 440.3727089285517) rotate(0 0.816236546148005 35.46416436964482)"><path d="M13.45 43.49 C8.14 47.96, 7.02 53.76, 1.1 71.04 M12.16 43.15 C10.05 50.03, 7.63 55.86, 2.24 70.59" stroke="#1e1e1e" stroke-width="1" fill="none"></path></g></g><mask></mask><g stroke-linecap="round"><g transform="translate(17.77911355325483 442.45445020917526) rotate(0 -0.6999560731593633 -0.28613775791458806)"><path d="M0.13 -0.01 C-0.07 -0.23, 0.09 -0.76, -0.07 -0.68 M-1.26 -1.07 C-1.73 -1.19, -1.54 0.59, -1.05 0.5" stroke="#1e1e1e" stroke-width="1" fill="none"></path></g><g transform="translate(17.77911355325483 442.45445020917526) rotate(0 -0.6999560731593633 -0.28613775791458806)"><path d="M-1.05 0.5 C-1.05 0.5, -1.05 0.5, -1.05 0.5 M-1.05 0.5 C-1.05 0.5, -1.05 0.5, -1.05 0.5" stroke="#1e1e1e" stroke-width="1" fill="none"></path></g><g transform="translate(17.77911355325483 442.45445020917526) rotate(0 -0.6999560731593633 -0.28613775791458806)"><path d="M-1.05 0.5 C-1.05 0.5, -1.05 0.5, -1.05 0.5 M-1.05 0.5 C-1.05 0.5, -1.05 0.5, -1.05 0.5" stroke="#1e1e1e" stroke-width="1" fill="none"></path></g></g><mask></mask><g stroke-linecap="round"><g transform="translate(322.7698560895493 315.1173015703818) rotate(0 0.4692771789363235 80.98170467501365)"><path d="M0.9 -0.35 C1.17 26.72, 0.93 136.59, 0.95 163.54 M-0.09 -1.58 C0.16 25.7, 0.36 134.73, 0.49 162.02" stroke="#1e1e1e" stroke-width="1" fill="none"></path></g></g><mask></mask><g stroke-linecap="round" transform="translate(340.8150754716194 339.15498438877364) rotate(0 64.5 52)"><path d="M26 0 M26 0 C48.49 2.4, 71.7 0.6, 103 0 M26 0 C50.94 -1.23, 76.59 -0.98, 103 0 M103 0 C119.59 0.61, 130.47 9.35, 129 26 M103 0 C120.9 2.12, 131.16 9.73, 129 26 M129 26 C128.43 36.96, 128.23 49.1, 129 78 M129 26 C128.09 42.72, 128.98 58.3, 129 78 M129 78 C128.07 96.59, 120.28 102.48, 103 104 M129 78 C127.21 94.35, 121.6 103.65, 103 104 M103 104 C70.82 104.6, 41.76 103.95, 26 104 M103 104 C86.04 102.9, 67.12 103.32, 26 104 M26 104 C7.85 105.77, 1.64 97.06, 0 78 M26 104 C9.38 102.78, 1.23 94.21, 0 78 M0 78 C1.55 57.92, -0.46 36.59, 0 26 M0 78 C-0.58 60.02, -1.14 41.14, 0 26 M0 26 C-0.66 7.94, 6.92 1.46, 26 0 M0 26 C0.54 10.23, 9.58 1.49, 26 0" stroke="#1e1e1e" stroke-width="1" fill="none"></path></g><g transform="translate(354.3310781266487 381.15498438877364) rotate(0 50.9839973449707 10)"><text x="50.9839973449707" y="0" font-family="Virgil, Segoe UI Emoji" font-size="16px" fill="#1e1e1e" text-anchor="middle" style="white-space: pre;" direction="ltr" dominant-baseline="text-before-edge">Data Worker</text></g><g transform="translate(391.29153260848386 441.6160309318592) rotate(0 -169.57287509031565 136.98591688790623)" stroke="none"><path fill="#1e1e1e" d="M 1.24,-0.41 Q 1.24,-0.41 1.94,1.66 2.63,3.75 2.95,5.41 3.26,7.08 3.40,10.97 3.54,14.86 3.59,20.65 3.64,26.44 3.67,33.07 3.69,39.69 3.35,47.39 3.01,55.09 2.17,62.91 1.33,70.72 0.63,78.52 -0.06,86.32 -1.06,93.84 -2.05,101.35 -3.17,109.05 -4.29,116.75 -5.46,123.85 -6.63,130.94 -8.17,137.47 -9.72,144.00 -12.48,151.01 -15.25,158.01 -18.86,165.51 -22.47,173.00 -27.14,181.07 -31.81,189.14 -36.59,196.40 -41.36,203.66 -47.60,210.63 -53.84,217.59 -62.04,226.09 -70.24,234.58 -76.87,240.65 -83.50,246.71 -89.16,250.38 -94.83,254.05 -102.46,258.04 -110.09,262.03 -119.28,265.49 -128.47,268.94 -138.36,270.77 -148.24,272.60 -159.41,273.37 -170.58,274.15 -180.18,274.47 -189.77,274.80 -197.78,273.54 -205.79,272.28 -214.44,269.65 -223.08,267.02 -230.58,264.16 -238.07,261.30 -245.02,259.06 -251.98,256.82 -259.86,253.41 -267.75,250.00 -274.25,246.46 -280.75,242.91 -285.24,240.37 -289.73,237.82 -293.12,234.94 -296.51,232.05 -299.35,229.07 -302.18,226.10 -304.14,223.01 -306.10,219.93 -308.63,215.89 -311.16,211.85 -313.62,208.05 -316.08,204.26 -317.53,200.81 -318.98,197.35 -319.95,193.76 -320.92,190.18 -321.33,187.23 -321.74,184.29 -322.53,182.93 -323.33,181.57 -323.75,180.07 -324.17,178.57 -325.54,179.84 -326.91,181.12 -328.70,184.74 -330.49,188.35 -332.98,193.69 -335.47,199.02 -336.85,202.97 -338.24,206.92 -338.85,208.17 -339.46,209.42 -339.37,209.81 -339.28,210.19 -339.36,210.33 -339.44,210.46 -339.56,210.58 -339.67,210.69 -339.80,210.77 -339.94,210.85 -340.09,210.90 -340.24,210.95 -340.40,210.96 -340.55,210.97 -340.71,210.94 -340.87,210.92 -341.01,210.85 -341.16,210.79 -341.28,210.69 -341.41,210.60 -341.50,210.47 -341.60,210.35 -341.67,210.20 -341.74,210.06 -341.77,209.91 -341.80,209.75 -341.79,209.59 -341.78,209.43 -341.73,209.28 -341.69,209.13 -339.80,206.97 -337.92,204.82 -336.19,201.99 -334.47,199.15 -332.00,194.15 -329.53,189.14 -327.41,185.23 -325.29,181.31 -323.60,179.52 -321.90,177.72 -320.36,176.90 -318.83,176.07 -317.77,175.73 -316.71,175.39 -314.91,175.65 -313.11,175.90 -311.85,177.21 -310.59,178.51 -308.70,180.50 -306.81,182.49 -306.69,182.67 -306.57,182.84 -306.51,183.05 -306.45,183.25 -306.46,183.46 -306.47,183.67 -306.55,183.87 -306.63,184.07 -306.76,184.23 -306.90,184.40 -307.08,184.51 -307.26,184.62 -307.47,184.67 -307.68,184.71 -307.89,184.69 -308.10,184.67 -308.29,184.58 -308.49,184.50 -308.64,184.35 -308.80,184.21 -308.90,184.02 -309.00,183.83 -309.04,183.62 -309.07,183.41 -309.04,183.20 -309.01,182.99 -308.91,182.80 -308.81,182.62 -308.66,182.47 -308.50,182.32 -308.31,182.23 -308.12,182.14 -307.91,182.12 -307.70,182.09 -307.49,182.13 -307.28,182.18 -307.10,182.29 -306.92,182.40 -306.78,182.56 -306.64,182.72 -306.56,182.91 -306.48,183.11 -306.46,183.32 -306.45,183.53 -306.51,183.74 -306.56,183.94 -306.68,184.12 -306.80,184.30 -306.97,184.43 -307.13,184.56 -307.34,184.63 -307.54,184.70 -307.75,184.70 -307.96,184.70 -308.16,184.63 -308.36,184.57 -308.53,184.44 -308.70,184.31 -308.70,184.31 -308.70,184.31 -310.65,182.26 -312.59,180.20 -313.25,179.24 -313.90,178.27 -315.77,178.34 -317.64,178.41 -318.84,178.99 -320.04,179.57 -321.52,181.08 -323.00,182.59 -325.09,186.44 -327.17,190.30 -329.70,195.41 -332.23,200.53 -334.09,203.55 -335.95,206.56 -337.62,208.38 -339.28,210.19 -339.36,210.33 -339.44,210.46 -339.56,210.58 -339.67,210.69 -339.80,210.77 -339.94,210.85 -340.09,210.90 -340.24,210.95 -340.40,210.96 -340.55,210.97 -340.71,210.94 -340.87,210.92 -341.01,210.85 -341.16,210.79 -341.28,210.69 -341.41,210.60 -341.50,210.47 -341.60,210.35 -341.67,210.20 -341.74,210.06 -341.77,209.91 -341.80,209.75 -341.79,209.59 -341.78,209.43 -341.73,209.28 -341.69,209.13 -341.78,209.06 -341.88,208.98 -341.30,207.52 -340.71,206.05 -339.28,201.98 -337.85,197.92 -335.35,192.55 -332.85,187.19 -331.06,183.58 -329.28,179.98 -327.41,177.28 -325.55,174.58 -324.17,175.14 -322.80,175.69 -322.22,176.78 -321.64,177.87 -321.33,179.09 -321.02,180.32 -320.09,182.09 -319.16,183.87 -318.77,186.68 -318.38,189.50 -317.47,192.92 -316.56,196.34 -315.22,199.59 -313.88,202.84 -311.41,206.64 -308.94,210.45 -306.41,214.49 -303.87,218.53 -302.07,221.41 -300.27,224.29 -297.54,227.18 -294.80,230.06 -291.61,232.80 -288.42,235.54 -283.96,238.07 -279.49,240.60 -273.10,244.10 -266.70,247.59 -258.94,250.96 -251.17,254.32 -244.15,256.58 -237.14,258.84 -229.72,261.67 -222.31,264.50 -213.85,267.10 -205.38,269.69 -197.62,270.93 -189.85,272.17 -180.31,271.85 -170.76,271.53 -159.74,270.77 -148.72,270.01 -139.05,268.25 -129.39,266.48 -120.35,263.09 -111.30,259.71 -103.78,255.77 -96.25,251.84 -90.76,248.31 -85.26,244.77 -78.69,238.76 -72.13,232.76 -63.96,224.30 -55.80,215.84 -49.67,209.02 -43.55,202.21 -38.82,195.02 -34.09,187.82 -29.46,179.84 -24.83,171.86 -21.26,164.45 -17.69,157.05 -14.98,150.22 -12.28,143.39 -10.75,136.95 -9.22,130.52 -8.05,123.44 -6.89,116.37 -5.77,108.69 -4.66,101.00 -3.67,93.54 -2.68,86.09 -1.97,78.26 -1.27,70.44 -0.44,62.71 0.39,54.98 0.73,47.34 1.06,39.70 1.04,33.08 1.02,26.47 0.96,20.71 0.91,14.95 0.80,11.25 0.68,7.56 0.41,6.06 0.14,4.57 -0.55,2.49 -1.24,0.41 -1.27,0.26 -1.30,0.10 -1.30,-0.05 -1.29,-0.21 -1.25,-0.36 -1.20,-0.51 -1.12,-0.65 -1.04,-0.78 -0.93,-0.90 -0.83,-1.01 -0.69,-1.10 -0.56,-1.18 -0.41,-1.23 -0.26,-1.28 -0.10,-1.29 0.05,-1.31 0.20,-1.28 0.36,-1.26 0.51,-1.19 0.65,-1.13 0.78,-1.04 0.91,-0.94 1.01,-0.82 1.11,-0.70 1.17,-0.55 1.24,-0.41 1.24,-0.41 L 1.24,-0.41 Z"></path></g><g transform="translate(304.50299757602545 620.1534205977257) rotate(303.61360572468953 79.24336075072344 8.167398302178754)"><text x="0" y="0" font-family="Virgil, Segoe UI Emoji" font-size="13.06783728348601px" fill="#1e1e1e" text-anchor="start" style="white-space: pre;" direction="ltr" dominant-baseline="text-before-edge">Update Trivia Questions</text></g><g transform="translate(432.7532907457513 449.4982203163397) rotate(0 -56.540005107562905 49.73426375202297)" stroke="none"><path fill="#1e1e1e" d="M 1.17,-0.58 Q 1.17,-0.58 2.67,2.42 4.18,5.43 5.72,8.51 7.27,11.60 8.54,14.76 9.82,17.93 10.67,20.50 11.52,23.07 12.21,27.26 12.89,31.44 13.17,35.95 13.46,40.46 13.58,43.87 13.70,47.29 13.11,50.43 12.52,53.57 10.03,56.31 7.54,59.05 3.70,61.40 -0.12,63.76 -4.17,65.65 -8.21,67.54 -12.66,69.25 -17.10,70.96 -22.35,72.31 -27.61,73.65 -33.49,74.53 -39.37,75.41 -45.14,76.37 -50.91,77.34 -56.37,78.35 -61.82,79.36 -67.23,79.80 -72.63,80.24 -77.29,80.72 -81.95,81.21 -87.25,81.71 -92.55,82.22 -97.20,82.74 -101.85,83.25 -105.26,84.06 -108.67,84.87 -110.96,85.79 -113.25,86.71 -115.38,87.98 -117.51,89.24 -119.34,90.39 -121.17,91.54 -122.41,92.08 -123.64,92.62 -124.03,92.52 -124.42,92.42 -124.57,92.47 -124.72,92.51 -124.88,92.52 -125.03,92.53 -125.19,92.51 -125.34,92.48 -125.49,92.41 -125.63,92.35 -125.76,92.25 -125.88,92.15 -125.98,92.03 -126.08,91.91 -126.15,91.76 -126.21,91.62 -126.24,91.46 -126.27,91.31 -126.26,91.15 -126.25,90.99 -126.20,90.84 -126.16,90.69 -126.08,90.55 -125.99,90.42 -125.88,90.30 -125.77,90.19 -125.63,90.11 -125.50,90.03 -124.79,88.46 -124.09,86.90 -121.47,83.89 -118.86,80.88 -116.53,78.70 -114.20,76.53 -112.59,75.28 -110.97,74.04 -110.60,73.52 -110.23,73.00 -110.09,72.92 -109.96,72.84 -109.81,72.80 -109.65,72.75 -109.50,72.74 -109.34,72.74 -109.18,72.77 -109.03,72.80 -108.88,72.86 -108.74,72.93 -108.62,73.03 -108.49,73.13 -108.40,73.25 -108.30,73.38 -108.24,73.52 -108.17,73.67 -108.14,73.82 -108.12,73.98 -108.13,74.14 -108.14,74.30 -108.19,74.45 -108.24,74.60 -108.32,74.73 -108.40,74.87 -108.52,74.98 -108.63,75.09 -109.85,75.57 -111.07,76.04 -112.58,77.04 -114.10,78.04 -116.48,80.79 -118.85,83.53 -120.45,86.16 -122.05,88.80 -122.71,90.46 -123.37,92.12 -123.60,93.36 -123.83,94.59 -122.79,94.93 -121.75,95.27 -119.31,95.47 -116.86,95.67 -114.48,96.09 -112.10,96.51 -109.88,96.99 -107.66,97.48 -107.47,97.55 -107.27,97.63 -107.11,97.77 -106.94,97.91 -106.83,98.09 -106.72,98.27 -106.68,98.48 -106.63,98.68 -106.65,98.90 -106.68,99.11 -106.77,99.30 -106.85,99.49 -107.00,99.65 -107.15,99.80 -107.33,99.90 -107.52,100.00 -107.73,100.04 -107.94,100.07 -108.15,100.04 -108.36,100.00 -108.55,99.91 -108.73,99.81 -108.88,99.65 -109.03,99.50 -109.12,99.31 -109.21,99.11 -109.23,98.90 -109.25,98.69 -109.21,98.48 -109.16,98.28 -109.06,98.09 -108.95,97.91 -108.78,97.77 -108.62,97.64 -108.43,97.56 -108.23,97.48 -108.02,97.47 -107.80,97.45 -107.60,97.51 -107.39,97.57 -107.22,97.68 -107.04,97.80 -106.91,97.97 -106.78,98.14 -106.72,98.34 -106.65,98.54 -106.65,98.76 -106.65,98.97 -106.71,99.17 -106.78,99.37 -106.91,99.54 -107.04,99.71 -107.21,99.83 -107.39,99.95 -107.59,100.01 -107.80,100.06 -108.01,100.05 -108.22,100.04 -108.22,100.04 -108.22,100.04 -110.39,99.57 -112.56,99.10 -114.84,98.69 -117.12,98.29 -119.98,97.97 -122.84,97.65 -124.35,96.75 -125.86,95.85 -126.16,94.65 -126.46,93.45 -126.13,92.29 -125.81,91.14 -125.05,89.28 -124.30,87.43 -122.56,84.62 -120.83,81.81 -118.19,78.83 -115.55,75.85 -112.89,74.43 -110.23,73.00 -110.09,72.92 -109.96,72.84 -109.81,72.80 -109.65,72.75 -109.50,72.74 -109.34,72.74 -109.18,72.77 -109.03,72.80 -108.88,72.86 -108.74,72.93 -108.62,73.03 -108.49,73.13 -108.40,73.25 -108.30,73.38 -108.24,73.52 -108.17,73.67 -108.14,73.82 -108.12,73.98 -108.13,74.14 -108.14,74.30 -108.19,74.45 -108.24,74.60 -108.32,74.73 -108.40,74.87 -108.52,74.98 -108.63,75.09 -108.99,75.59 -109.35,76.10 -110.88,77.27 -112.41,78.45 -114.65,80.53 -116.88,82.62 -119.34,85.39 -121.79,88.17 -123.10,90.29 -124.42,92.42 -124.57,92.47 -124.72,92.51 -124.88,92.52 -125.03,92.53 -125.19,92.51 -125.34,92.48 -125.49,92.41 -125.63,92.35 -125.76,92.25 -125.88,92.15 -125.98,92.03 -126.08,91.91 -126.14,91.76 -126.21,91.62 -126.24,91.46 -126.27,91.31 -126.26,91.15 -126.25,90.99 -126.20,90.84 -126.16,90.69 -126.08,90.55 -125.99,90.42 -125.88,90.30 -125.77,90.19 -125.64,90.11 -125.50,90.03 -124.03,89.67 -122.56,89.31 -120.70,88.14 -118.84,86.98 -116.53,85.63 -114.23,84.27 -111.75,83.29 -109.27,82.31 -105.71,81.48 -102.14,80.64 -97.47,80.12 -92.80,79.61 -87.51,79.10 -82.22,78.59 -77.53,78.11 -72.84,77.62 -67.57,77.20 -62.30,76.78 -56.82,75.76 -51.35,74.75 -45.55,73.78 -39.76,72.81 -34.01,71.96 -28.26,71.11 -23.15,69.81 -18.04,68.51 -13.68,66.84 -9.32,65.16 -5.40,63.34 -1.48,61.51 2.08,59.37 5.66,57.22 7.85,55.05 10.04,52.88 10.56,50.12 11.07,47.37 10.95,44.00 10.84,40.62 10.56,36.24 10.29,31.86 9.66,27.87 9.03,23.89 8.21,21.40 7.39,18.91 6.15,15.84 4.92,12.77 3.37,9.69 1.83,6.60 0.33,3.59 -1.17,0.58 -1.22,0.43 -1.28,0.28 -1.29,0.13 -1.31,-0.02 -1.29,-0.18 -1.26,-0.33 -1.20,-0.48 -1.15,-0.63 -1.05,-0.76 -0.96,-0.89 -0.84,-0.99 -0.72,-1.09 -0.58,-1.16 -0.44,-1.23 -0.28,-1.27 -0.13,-1.30 0.02,-1.30 0.18,-1.30 0.33,-1.25 0.48,-1.21 0.62,-1.14 0.76,-1.06 0.88,-0.95 1.00,-0.85 1.08,-0.71 1.17,-0.58 1.17,-0.58 L 1.17,-0.58 Z"></path></g><g transform="translate(455.14405573658973 503.5064834654662) rotate(0 106.93599700927734 10)"><text x="0" y="0" font-family="Virgil, Segoe UI Emoji" font-size="16px" fill="#1e1e1e" text-anchor="start" style="white-space: pre;" direction="ltr" dominant-baseline="text-before-edge">Cleanup Old Game Sessions</text></g></svg>